# xmcd
#
# Track frame offsets: 
#        150
#        1870
#        5390
#        28423
#        39592
#        52840
#        54079
#        69571
#        84871
#        90633
#        106161
#        123490
#        125781
#        144688
#        161549
#        162233
#        175340
#        176987
#        178989
#        192014
#        204830
#        224654
#
# Disc length: 3006 seconds
#
# Revision: 0
# Processed by: cddbd v1.5.2PL0 Copyright (c) Steve Scherf et al.
# Submitted via: ExactAudioCopy v0.95b2
#
DISCID=2e0bbc16
DTITLE=Xavier Baumaxa - Retrofutro
DYEAR=2007
DGENRE=Folk
TTITLE0=Nedelni Chvilka Poesie
TTITLE1=Leos Sucharipa - Budicek
TTITLE2=Retrofutro Dicotheque
TTITLE3=Modre Tanky Nejsou Funky
TTITLE4=Good Times and Bad Times
TTITLE5=Egon Janak - Proc Ne Ja
TTITLE6=How Mucho I Believe
TTITLE7=Last Free Place
TTITLE8=Friday Night Nostalgy
TTITLE9=Spolkni Noc
TTITLE10=Kdyz Muz Sam Snida
TTITLE11=E. E. Kisch - Vasik Je Maly Nazipan
TTITLE12=Nazijazz
TTITLE13=Maroko
TTITLE14=Miroslav Moravec - Kakaova Recidiva
TTITLE15=Hnedda
TTITLE16=Nedelni Chvilka Poesie
TTITLE17=Mutzkimier Zweimal - Frigidenleute
TTITLE18=Frustrovanek
TTITLE19=Paco De Lucia
TTITLE20=Negatiff Rerrae
TTITLE21=Miroslav Moravec - To Ja Miluju
EXTD=
EXTT0=
EXTT1=
EXTT2=
EXTT3=
EXTT4=
EXTT5=
EXTT6=
EXTT7=
EXTT8=
EXTT9=
EXTT10=
EXTT11=
EXTT12=
EXTT13=
EXTT14=
EXTT15=
EXTT16=
EXTT17=
EXTT18=
EXTT19=
EXTT20=
EXTT21=
PLAYORDER=
